<?xml version="1.0" encoding="utf-8"?>
<!-- Generator: Adobe Illustrator 22.0.1, SVG Export Plug-In . SVG Version: 6.00 Build 0)  -->
<svg version="1.1" id="VisualTag" xmlns="http://www.w3.org/2000/svg" xmlns:xlink="http://www.w3.org/1999/xlink" x="0px" y="0px"
	 viewBox="0 0 1000 1000" style="enable-background:new 0 0 1000 1000;" xml:space="preserve">
<style type="text/css">
	.st0{fill:none;stroke:#050800;stroke-width:2;stroke-miterlimit:10;}
	.st1{fill:#050800;}
	.st2{opacity:0.83;fill:#050800;}
	.st3{fill:#C01710;}
	.st4{fill:#FFFFFF;}
</style>
<g id="VISUAL">
	<path d="M96.9,526.3H74.7l-29.1-89.6h20.3l20,63h0.3l20.2-63h20.3L96.9,526.3z"/>
	<path d="M134.3,436.6H154v89.6h-19.7V436.6z"/>
	<path d="M183.9,499.7c2,11.8,12.6,13.4,19.8,13.4c6.9,0,17.5-2,17.5-11.2c0-19.1-53.4-6.8-53.4-40.3c0-18.5,17.3-27.1,33.5-27.1
		c18.7,0,35.9,8.2,35.9,28.9l-19.1-2.8c-2.4-10.4-11.6-10.8-17.7-10.8c-6.3,0-13.6,2.6-13.6,10.2c0,6.7,4.3,8.2,26.7,13.6
		c6.7,1.6,26.6,5.8,26.6,26.1c0,16.4-12.8,28.8-37.3,28.8c-20.1,0-38.2-9.8-38.2-31.9L183.9,499.7z"/>
	<path d="M328,492.4c0,24.2-14.3,36-38.3,36c-24.2,0-38.2-11.6-38.2-36v-55.7h19.7v55.7c0,9.8,2.5,19.5,18.5,19.5
		c14.1,0,18.6-6,18.6-19.5v-55.7H328V492.4z"/>
	<path d="M336.2,526.3l40.7-89.5h19.8l40.1,89.5h-19.1l-8.8-19.8h-45.3l-9.4,19.8H336.2z M387,453.6l-15.1,34.7h29.8l-14.6-34.7H387
		z"/>
	<path d="M444.1,525.7v-89.4h19.3v72.8h46v16.6H444.1z"/>
</g>
<g id="TAG">
	<path d="M744.5,456.4H721v-13.5h62.9v13.6h-23.2v60h-16.2V456.4z"/>
	<path d="M786.2,516.5l33.5-73.6h16.3l32.9,73.6h-15.7l-7.2-16.3h-37.3l-7.7,16.3H786.2z M828,456.7l-12.4,28.5h24.5l-12-28.5H828z"
		/>
	<path d="M942.1,497.9c-6.3,11.9-19.1,19.8-33.5,19.8c-21,0-38.1-17.1-38.1-38.2c0-21,17.1-38.1,38.1-38.1c14.2,0,26.7,8,33.4,19.4
		c-6.5,3.3-7,3.6-14.3,7.2c-3.8-6.6-10.8-10.8-19.1-10.8c-12.4,0-22.3,9.9-22.3,22.3c0,12.5,9.9,22.3,22.3,22.3
		c8.3,0,16.5-4.1,19.5-11.2h-1.7c-3.3,0-10.8,0.1-15,0.1c-2,0-2.9,0-2.9-0.1v-13.6c10.4,0,25,0.1,37.7,0.1
		C946.3,479.3,945.9,493,942.1,497.9z"/>
</g>
<circle class="st0" cx="616.4" cy="479.6" r="89.5"/>
<rect x="510.1" y="477" class="st1" width="16.2" height="3.8"/>
<rect x="705.9" y="477" class="st1" width="16.2" height="3.8"/>
<rect x="606.4" y="380.6" transform="matrix(-1.836970e-16 1 -1 -1.836970e-16 996.2071 -231.1974)" class="st1" width="14.7" height="3.8"/>
<rect x="606.4" y="575.2" transform="matrix(-1.836970e-16 1 -1 -1.836970e-16 1190.8079 -36.7003)" class="st1" width="14.7" height="3.8"/>
<path class="st2" d="M507.2,422.9C526.8,381.6,568,353,615.6,353c48.5,0,90.5,29.7,109.6,72.4l29.6,0.3
	c-20.6-58.4-75.2-100.1-139.2-100.1c-62.9,0-116.6,40.2-138.1,96.9L507.2,422.9z"/>
<path class="st2" d="M715.4,547.1c-21.7,32.9-58.4,54.5-99.8,54.5c-42.4,0-79.7-22.6-101.3-56.8l-31.5-0.4
	c24.2,50.1,74.5,84.5,132.7,84.5c57,0,106.6-33.1,131.3-81.5L715.4,547.1z"/>
<path class="st3" d="M502.1,422.9c20.3-43.3,63.4-72.6,113.7-72.6c50.3,0,94.4,31.9,114.7,75.1l2.7,0h4.3
	c-20.7-46.8-67.9-81.4-121.7-81.4S516,376,495.2,422.8l3.1,0L502.1,422.9z"/>
<path class="st3" d="M719.3,547.2c-22.4,35.9-60.3,57.3-105.1,57.3s-84.3-23.9-106.7-59.8h-7.3c23.1,39.5,65.5,66,114,66
	s90.9-24,114-63.4l-4.2,0L719.3,547.2z"/>
<path class="st3" d="M719.3,547.2c-22.4,35.9-60.3,57.3-105.1,57.3s-84.3-23.9-106.7-59.8h-7.3c23.1,39.5,65.5,66,114,66
	s90.9-24,114-63.4l-4.2,0L719.3,547.2z"/>
<path class="st1" d="M616.1,479.9v89.8c-49.3,0-89.8-40.5-89.8-89.8s40.5-89.8,89.8-89.8V479.9z"/>
<path id="Persona" class="st4" d="M616.6,529.4v4.1v5.8l-18.7,7.3l-13.6-15.4l5.9-7.7L616.6,529.4z M578.1,442.3
	c0,0-0.9,48.5,18.7,56.5c2.8,0,19.9,1.7,19.9,1.7v-8.3v-8.3v-13.2v-18.2l0.1-7.1c0,0-22.7-11.1-24.4-10.7
	C590.5,435.2,578.1,442.3,578.1,442.3z M617.4,402.1c0,0-37.6-3.4-39.4,29.9c0,0,8.9-5.8,12-6.2c3.1-0.4,27.1,8.9,27.1,8.9l0.2-30.1
	V402.1z M595.8,507.2c0,0-0.4,7.9,0,8.8c0.4,0.9,20.8,2.6,20.8,2.6v-11.5H595.8z"/>
<path id="carro" class="st3" d="M617.4,444.4c0,0,0,0,2.7,0s48.5-1,48.4-1.6c-0.1-0.5-10-28.3-10.7-29.2s-9.8-1.6-14.1-2
	c-4.2-0.4-26.6-2.5-27.2-2.5c-0.6,0-0.5-1.9,0-1.9c6.4-0.6,40.9,2.7,40.9,2.7c1.6,0,2.8,1.2,5.6,4.7c1.4,1.7,5.3,13.1,9.2,25.4
	c4,12.8,7.9,26.5,8.9,31.4c1.9,9.6,0,57.2,0,57.2h-14.9v-12.1h-48.8v-9.2L617.4,444.4z M673.9,473.1c3.1-7.8-1.6-16.5-4.7-17.7
	c-3.1-1.2-12.1,0.9-15.9,3.4s-3.1,18.2-3.1,18.2C665.8,476.5,670.2,477,673.9,473.1z M617.3,495.8l0,9.6c0,0,28.9,0,42.6,0
	c1.2-0.1,2.8,0,3.6-0.4c4-1.9,2.1-6.3,0.5-7.8c-1.4-1.3-4-1.4-4-1.4H617.3z M672.2,440.1l1.3,4.3l1.4,0c0,0,0.1,1.1,0.7,1.1
	s5.3,0.3,7.8,0s0.6-10.3,0-10.5s-7.5-0.2-8.5,0c-1,0.2,0,5.1,0,5.1L672.2,440.1z"/>
<circle class="st4" cx="680.7" cy="353.6" r="6.1"/>
</svg>
