<?xml version="1.0" encoding="UTF-8" standalone="no"?>
<svg
   xmlns:dc="http://purl.org/dc/elements/1.1/"
   xmlns:cc="http://creativecommons.org/ns#"
   xmlns:rdf="http://www.w3.org/1999/02/22-rdf-syntax-ns#"
   xmlns:svg="http://www.w3.org/2000/svg"
   xmlns="http://www.w3.org/2000/svg"
   xmlns:sodipodi="http://sodipodi.sourceforge.net/DTD/sodipodi-0.dtd"
   xmlns:inkscape="http://www.inkscape.org/namespaces/inkscape"
   width="230.59947mm"
   height="90.2481mm"
   viewBox="0 0 230.59947 90.2481"
   version="1.1"
   id="svg167"
   sodipodi:docname="VisualTagLogo.svg"
   inkscape:version="1.0 (4035a4fb49, 2020-05-01)">
  <defs
     id="defs161">
    <rect
       id="rect237"
       height="56.356251"
       width="161.925"
       y="159.95512"
       x="-7.2248325" />
    <rect
       id="rect231"
       height="25.004402"
       width="107.39438"
       y="156.38197"
       x="-1.6421242" />
    <rect
       id="rect225"
       height="21.695833"
       width="100.0125"
       y="163.13013"
       x="-8.0185823" />
    <rect
       x="-7.2248325"
       y="159.95512"
       width="161.925"
       height="56.356251"
       id="rect237-6" />
    <rect
       x="-7.2248325"
       y="159.95512"
       width="161.925"
       height="56.356251"
       id="rect258" />
    <rect
       x="-7.2248325"
       y="159.95512"
       width="161.925"
       height="56.356251"
       id="rect282" />
    <rect
       id="rect282-1"
       height="25.461657"
       width="40.383354"
       y="159.95512"
       x="-7.2248325" />
    <rect
       id="rect293"
       height="56.356251"
       width="161.925"
       y="159.95512"
       x="-7.2248325" />
  </defs>
  <sodipodi:namedview
     inkscape:snap-others="false"
     inkscape:window-maximized="0"
     inkscape:window-y="963"
     inkscape:window-x="64"
     inkscape:window-height="960"
     inkscape:window-width="1424"
     fit-margin-bottom="0"
     fit-margin-right="10"
     fit-margin-left="0"
     fit-margin-top="10"
     showgrid="false"
     inkscape:document-rotation="0"
     inkscape:current-layer="layer1"
     inkscape:document-units="mm"
     inkscape:cy="-16.55692"
     inkscape:cx="-230.28839"
     inkscape:zoom="0.5"
     inkscape:pageshadow="2"
     inkscape:pageopacity="0.0"
     borderopacity="1.0"
     bordercolor="#666666"
     pagecolor="#ffffff"
     id="base" />
  <metadata
     id="metadata164">
    <rdf:RDF>
      <cc:Work
         rdf:about="">
        <dc:format>image/svg+xml</dc:format>
        <dc:type
           rdf:resource="http://purl.org/dc/dcmitype/StillImage" />
        <dc:title></dc:title>
      </cc:Work>
    </rdf:RDF>
  </metadata>
  <g
     transform="translate(0.51081534,-92.75096)"
     id="layer1"
     inkscape:groupmode="layer"
     inkscape:label="Layer 1">
    <circle
       r="27.790152"
       style="fill:none;stroke:#050800;stroke-width:0.621009;stroke-miterlimit:10"
       class="st0"
       cx="133.99657"
       cy="138.552"
       id="circle87" />
    <rect
       style="fill:#050800;stroke-width:0.310505"
       x="100.98977"
       y="137.74467"
       class="st1"
       width="5.0301728"
       height="1.179917"
       id="rect89" />
    <rect
       style="fill:#050800;stroke-width:0.310505"
       x="161.7867"
       y="137.74467"
       class="st1"
       width="5.0301728"
       height="1.179917"
       id="rect91" />
    <rect
       style="fill:#050800;stroke-width:0.275563"
       x="107.10564"
       y="-133.75035"
       transform="rotate(90)"
       class="st1"
       width="3.594929"
       height="1.179917"
       id="rect93" />
    <rect
       style="fill:#050800;stroke-width:0.242259"
       x="166.52834"
       y="-133.7506"
       transform="rotate(90)"
       class="st1"
       width="2.7784784"
       height="1.179917"
       id="rect95" />
    <path
       style="opacity:0.83;fill:#050800;stroke-width:0.264583"
       class="st2"
       d="m 105.38177,123.99698 c 5.18583,-10.92729 16.08666,-18.49437 28.68083,-18.49437 12.83229,0 23.94479,7.85812 28.99833,19.15583 l 7.83167,0.0794 c -5.45042,-15.45166 -19.89667,-26.484796 -36.83,-26.484796 -16.64229,0 -30.85042,10.636256 -36.538927,25.638136 z"
       id="path97" />
    <path
       style="opacity:0.83;fill:#050800;stroke-width:0.264583"
       class="st2"
       d="m 160.46802,156.85823 c -5.74146,8.70479 -15.45167,14.41979 -26.40542,14.41979 -11.21833,0 -21.08729,-5.97958 -26.80229,-15.02833 l -8.334353,-0.10583 c 6.402893,13.25562 19.711433,22.35729 35.110183,22.35729 15.08125,0 28.20458,-8.75771 34.73979,-21.56354 z"
       id="path99" />
    <path
       style="fill:#c01710;stroke-width:0.264583"
       class="st3"
       d="m 104.03239,123.99698 c 5.37104,-11.45646 16.77458,-19.20875 30.08313,-19.20875 13.30854,0 24.97666,8.44021 30.3477,19.87021 h 0.71438 1.13771 c -5.47688,-12.3825 -17.96521,-21.53708 -32.19979,-21.53708 -14.23459,0 -26.40542,8.46666 -31.90874,20.84916 h 0.8202 z"
       id="path101" />
    <path
       style="fill:#c01710;stroke-width:0.264583"
       class="st3"
       d="m 161.49989,156.88469 c -5.92667,9.49854 -15.95437,15.16063 -27.80771,15.16063 -11.85333,0 -22.30437,-6.32355 -28.23104,-15.82209 h -1.93146 c 6.11188,10.45104 17.33021,17.4625 30.1625,17.4625 12.83229,0 24.05063,-6.35 30.1625,-16.77458 h -1.11125 z"
       id="path103" />
    <path
       style="fill:#c01710;stroke-width:0.264583"
       class="st3"
       d="m 161.49989,156.88469 c -5.92667,9.49854 -15.95437,15.16063 -27.80771,15.16063 -11.85333,0 -22.30437,-6.32355 -28.23104,-15.82209 h -1.93146 c 6.11188,10.45104 17.33021,17.4625 30.1625,17.4625 12.83229,0 24.05063,-6.35 30.1625,-16.77458 h -1.11125 z"
       id="path105" />
    <path
       style="fill:#050800;stroke-width:0.310505"
       class="st1"
       d="m 133.90314,138.64511 v 27.8833 c -15.30785,0 -27.88328,-12.57543 -27.88328,-27.8833 0,-15.30786 12.57543,-27.88329 27.88328,-27.88329 z"
       id="path107" />
    <path
       sodipodi:nodetypes="ccccccccccccccccccccscccccscccc"
       style="fill:#ffffff;stroke-width:0.310505"
       id="Persona"
       class="st4"
       d="m 134.05841,154.01509 v 1.27307 6.49727 l -5.80645,-2.42966 -4.22285,-4.78178 1.83197,-2.39087 z m -11.95443,-27.04495 c 0,0 -0.27945,15.05947 5.80642,17.54352 0.86943,0 6.17906,0.52785 6.17906,0.52785 v -2.57718 -2.57719 -4.09866 -5.65118 l 0.12418,-5.52698 c 0,0 -7.67069,-1.57942 -8.19855,-1.45521 -0.58996,0.15525 -3.71263,2.16138 -3.71263,2.16138 z m 12.20282,-12.48227 c 0,0 -11.67495,-1.05571 -12.23387,9.28409 0,0 2.76349,-1.80093 3.72606,-1.92514 0.96256,-0.1242 8.41465,2.7635 8.41465,2.7635 l 0.062,-9.34619 v -0.77626 z m -6.70689,32.63402 c 0,0 -0.12419,2.45299 0,2.73244 0.12419,0.27945 6.4585,0.80731 6.4585,0.80731 v -3.57079 h -6.4585 z" />
    <path
       style="fill:#c01710;stroke-width:0.315294"
       id="carro"
       class="st3"
       d="m 134.32707,128.08604 c 0,0 0,0 0.88004,0 0.88005,0 15.80805,-0.30499 15.77544,-0.48799 -0.0326,-0.15251 -3.25939,-8.63139 -3.48753,-8.90587 -0.22817,-0.2745 -3.19422,-0.48801 -4.59576,-0.61 -1.36894,-0.12198 -8.66998,-0.76249 -8.86553,-0.76249 -0.19556,0 -0.16296,-0.5795 0,-0.5795 2.08603,-0.18299 13.33089,0.8235 13.33089,0.8235 0.52151,0 0.91264,0.366 1.82527,1.43348 0.45631,0.51849 1.72747,3.99545 2.99864,7.74689 1.30375,3.90393 2.57491,8.08239 2.90085,9.57686 0.61928,2.92798 0,17.44576 0,17.44576 h -4.85648 v -3.69046 h -15.90583 v -2.80595 z m 18.41556,8.75337 c 1.01041,-2.37895 -0.52152,-5.03241 -1.53192,-5.39842 -1.01041,-0.36599 -3.94386,0.2745 -5.18243,1.03697 -1.23858,0.7625 -1.01041,5.55093 -1.01041,5.55093 5.08464,-0.15249 6.51877,0 7.72476,-1.18948 z m -18.44815,6.92341 v 2.92798 c 0,0 9.41963,0 13.88501,0 0.39111,-0.0305 0.9126,0 1.17337,-0.12203 1.30375,-0.57947 0.68446,-1.92146 0.16296,-2.37896 -0.45631,-0.39649 -1.30375,-0.42699 -1.30375,-0.42699 z m 17.89405,-16.98826 0.42372,1.31148 h 0.45631 c 0,0 0.0327,0.33551 0.22816,0.33551 0.19556,0 1.72747,0.0916 2.5423,0 0.81486,-0.0916 0.19559,-3.14147 0,-3.20247 -0.19555,-0.0609 -2.44453,-0.0609 -2.77046,0 -0.32593,0.0609 0,1.55548 0,1.55548 z" />
    <circle
       r="1.6139584"
       style="fill:#ffffff;stroke-width:0.264583"
       class="st4"
       cx="151.2872"
       cy="105.66138"
       id="circle111" />
    <text
       style="font-style:normal;font-weight:normal;font-size:21.1667px;line-height:1.25;font-family:sans-serif;white-space:pre;shape-inside:url(#rect225);fill:#000000;fill-opacity:1;stroke:none;"
       id="text223"
       xml:space="preserve" />
    <text
       style="font-style:normal;font-weight:normal;font-size:10.5833px;line-height:1.25;font-family:sans-serif;white-space:pre;shape-inside:url(#rect231);fill:#000000;fill-opacity:1;stroke:none;"
       id="text229"
       xml:space="preserve" />
    <text
       transform="matrix(1.4868189,0,0,1.5929162,14.180905,-133.18972)"
       style="font-style:normal;font-weight:normal;font-size:21.1667px;line-height:1.25;font-family:sans-serif;white-space:pre;shape-inside:url(#rect237);fill:#000000;fill-opacity:1;stroke:none;"
       id="text235"
       xml:space="preserve"><tspan
         x="-7.2246094"
         y="179.2661"><tspan
           style="font-style:normal;font-variant:normal;font-weight:bold;font-stretch:normal;font-family:Tahoma;-inkscape-font-specification:'Tahoma Bold'">Visual</tspan></tspan></text>
    <text
       id="text247"
       y="163.6593"
       x="-9.606082"
       style="font-style:normal;font-weight:normal;font-size:10.5833px;line-height:1.25;font-family:sans-serif;fill:#000000;fill-opacity:1;stroke:none;stroke-width:0.264583"
       xml:space="preserve"><tspan
         style="stroke-width:0.264583"
         y="163.6593"
         x="-9.606082"
         id="tspan245"
         sodipodi:role="line" /></text>
    <text
       transform="matrix(1.4868189,0,0,1.5929162,178.61501,-131.83291)"
       style="font-style:normal;font-weight:normal;font-size:21.1667px;line-height:1.25;font-family:sans-serif;white-space:pre;shape-inside:url(#rect282-1);fill:#000000;fill-opacity:1;stroke:none;"
       id="text280-2"
       xml:space="preserve"><tspan
         x="-7.2246094"
         y="179.2661"><tspan
           style="font-style:normal;font-variant:normal;font-weight:bold;font-stretch:normal;font-family:Tahoma;-inkscape-font-specification:'Tahoma Bold'">Tag</tspan></tspan></text>
  </g>
</svg>
