<?xml version="1.0" encoding="utf-8"?>
<!-- Generator: Adobe Illustrator 22.0.1, SVG Export Plug-In . SVG Version: 6.00 Build 0)  -->
<svg version="1.1" id="VisualTag" xmlns="http://www.w3.org/2000/svg" xmlns:xlink="http://www.w3.org/1999/xlink" x="0px" y="0px"
	 viewBox="0 0 1000 1000" style="enable-background:new 0 0 1000 1000;" xml:space="preserve">
<style type="text/css">
	.st0{fill:#070308;}
	.st1{fill:#FFFFFF;}
	.st2{fill:none;stroke:#050800;stroke-width:24;stroke-miterlimit:10;}
	.st3{fill:none;stroke:#050800;stroke-width:5;stroke-miterlimit:10;}
</style>
<path class="st0" d="M378.3,441.9c7.1-57.2,52.5-102.6,109.7-109.9V322c-62.7,7.3-112.6,57.3-119.8,119.9L378.3,441.9z"/>
<path class="st0" d="M520,332c57.1,7.2,102.5,52.5,109.7,109.6l10.1,0C632.4,379.1,582.6,329.3,520,322V332z"/>
<path class="st0" d="M488,583c-56.9-7.2-102.2-52.3-109.6-109.1l-10.1,0c7.5,62.3,57.2,111.8,119.7,119.1V583z"/>
<path class="st0" d="M629.6,473.6C622.4,530.5,577,575.8,520,583V593c62.6-7.3,112.3-57,119.7-119.4L629.6,473.6z"/>
<g id="Texto">
	<path class="st0" d="M307.5,708.6h-12.7L278,657.2h11.7l11.4,36.1h0.1l11.6-36.1h11.7L307.5,708.6z"/>
	<path class="st0" d="M328.9,657.2h11.3v51.4h-11.3V657.2z"/>
	<path class="st0" d="M357.4,693.3c1.2,6.8,7.2,7.7,11.4,7.7c4,0,10-1.2,10-6.4c0-10.9-30.6-3.9-30.6-23.1
		c0-10.6,9.9-15.6,19.2-15.6c10.7,0,20.6,4.7,20.6,16.6l-10.9-1.6c-1.4-6-6.6-6.2-10.2-6.2c-3.6,0-7.8,1.5-7.8,5.8
		c0,3.8,2.4,4.7,15.3,7.8c3.8,0.9,15.3,3.3,15.3,15c0,9.4-7.3,16.5-21.4,16.5c-11.5,0-21.9-5.6-21.9-18.3L357.4,693.3z"/>
	<path class="st0" d="M440,689.1c0,13.9-8.2,20.7-22,20.7c-13.9,0-21.9-6.6-21.9-20.7v-32h11.3v32c0,5.6,1.4,11.2,10.6,11.2
		c8.1,0,10.7-3.5,10.7-11.2v-32H440V689.1z"/>
	<path class="st0" d="M444.7,708.6l23.3-51.3h11.4l23,51.3h-10.9l-5-11.4h-26l-5.4,11.4H444.7z M473.9,666.9l-8.6,19.9h17.1
		L473.9,666.9L473.9,666.9z"/>
	<path class="st0" d="M506.6,708.2v-51.3h11.1v41.8h26.4v9.5H506.6z"/>
	<path class="st0" d="M587.1,666.7h-16.3v-9.4h43.9v9.5h-16.2v41.8h-11.3V666.7z"/>
	<path class="st0" d="M616.2,708.6l23.3-51.3h11.4l23,51.3h-10.9l-5-11.4h-26l-5.4,11.4H616.2z M645.4,666.9l-8.6,19.9h17.1
		L645.4,666.9L645.4,666.9z"/>
	<path class="st0" d="M724.9,695.6c-4.4,8.3-13.3,13.8-23.3,13.8c-14.6,0-26.6-12-26.6-26.6c0-14.6,12-26.6,26.6-26.6
		c9.9,0,18.6,5.5,23.3,13.5c-4.5,2.3-4.9,2.5-9.9,5c-2.7-4.6-7.6-7.6-13.3-7.6c-8.6,0-15.6,6.9-15.6,15.6c0,8.7,6.9,15.6,15.6,15.6
		c5.8,0,11.5-2.9,13.6-7.8h-1.2c-2.3,0-7.6,0.1-10.4,0.1c-1.4,0-2,0-2-0.1v-9.5c7.3,0,17.4,0.1,26.3,0.1
		C727.9,682.7,727.6,692.2,724.9,695.6z"/>
</g>
<path id="medio_circulo" class="st0" d="M504,458v110.9c-60.8,0-110.9-50.1-110.9-110.9S443.2,347.1,504,347.1V458z"/>
<path id="Persona" class="st1" d="M501,520v5v7l-22.6,8.8l-16.5-18.6l7.2-9.3L501,520z M454.4,414.6c0,0-1.1,58.6,22.6,68.3
	c3.4,0,24,2.1,24,2.1v-10v-10v-16v-22l0.2-8.6c0,0-27.4-13.4-29.6-12.9C469.4,406,454.4,414.6,454.4,414.6z M502,366
	c0,0-45.5-4.1-47.6,36.2c0,0,10.8-7,14.5-7.5c3.8-0.5,32.8,10.7,32.8,10.7L502,369V366z M475.9,493.1c0,0-0.5,9.6,0,10.7
	c0.5,1.1,25.1,3.2,25.1,3.2v-13.9H475.9z"/>
<path id="carro" class="st0" d="M504.3,426.5l77.5-1.1c0,0-14.5-33.9-15.1-37.7c-0.3-2.4,2-2.9,3.9-2.1c1,0.4,2.2,2.1,2.2,2.1
	c4,4.8,11.2,21,17.5,37.3c5.8,15.1,10.7,30.2,11.5,36.4c1.6,12.9,1.6,70.5,0,73.2c-1.6,2.7-23.1,1.1-23.7,0s0-15.1,0-15.1h-75.1
	L504.3,426.5z M504,506.7c0,0,67.6-0.4,69.7-2.2c2.1-1.7,4.8-10.9-5.8-11.3c-10.6-0.4-63.9,0-63.9,0V506.7z M504.3,476.6
	c0,0,8.6,0,29,0c20.4,0,16.9-23.3,16.9-23.3h-45.9V476.6z M554.2,467.6c0,0,3.6,2.2,24.7,0c21.2-2.2,10-22.6,7.2-25.8
	c-2.9-3.2-18.6,0-18.6,0C550.9,442.8,554.2,467.6,554.2,467.6z M595.2,428.1c0,0,16.1,1.6,16.7-2.7c0.5-4.3,1.6-10.2-5.9-11.3
	c-7.5-1.1-16.1,0-16.1,0v14.3L595.2,428.1z"/>
<ellipse id="Trazo_exterior" class="st2" cx="504" cy="456" rx="170.1" ry="173"/>
<ellipse id="circulo_negro" class="st3" cx="504" cy="456" rx="149.5" ry="152"/>
<circle id="circulo_blanco" class="st1" cx="583.5" cy="303.5" r="7.5"/>
</svg>
