<?xml version="1.0" encoding="UTF-8" standalone="no"?>
<svg
   xmlns:dc="http://purl.org/dc/elements/1.1/"
   xmlns:cc="http://creativecommons.org/ns#"
   xmlns:rdf="http://www.w3.org/1999/02/22-rdf-syntax-ns#"
   xmlns:svg="http://www.w3.org/2000/svg"
   xmlns="http://www.w3.org/2000/svg"
   xmlns:sodipodi="http://sodipodi.sourceforge.net/DTD/sodipodi-0.dtd"
   xmlns:inkscape="http://www.inkscape.org/namespaces/inkscape"
   inkscape:version="1.0 (4035a4fb49, 2020-05-01)"
   width="248.6104mm"
   height="80.2481mm"
   viewBox="0 0 248.6104 80.2481"
   version="1.1"
   id="svg167"
   sodipodi:docname="VisualTagLogo.svg">
  <defs
     id="defs161">
    <rect
       id="rect237"
       height="56.356251"
       width="161.925"
       y="159.95512"
       x="-7.2248325" />
    <rect
       id="rect231"
       height="25.004402"
       width="107.39438"
       y="156.38197"
       x="-1.6421242" />
    <rect
       id="rect225"
       height="21.695833"
       width="100.0125"
       y="163.13013"
       x="-8.0185823" />
    <rect
       x="-7.2248325"
       y="159.95512"
       width="161.925"
       height="56.356251"
       id="rect237-6" />
    <rect
       x="-7.2248325"
       y="159.95512"
       width="161.925"
       height="56.356251"
       id="rect258" />
    <rect
       x="-7.2248325"
       y="159.95512"
       width="161.925"
       height="56.356251"
       id="rect282" />
    <rect
       id="rect282-1"
       height="25.461657"
       width="40.383354"
       y="159.95512"
       x="-7.2248325" />
    <rect
       id="rect293"
       height="56.356251"
       width="161.925"
       y="159.95512"
       x="-7.2248325" />
  </defs>
  <sodipodi:namedview
     inkscape:showpageshadow="false"
     inkscape:snap-others="false"
     inkscape:window-maximized="1"
     inkscape:window-y="951"
     inkscape:window-x="-9"
     inkscape:window-height="1001"
     inkscape:window-width="1920"
     fit-margin-bottom="0"
     fit-margin-right="0"
     fit-margin-left="0"
     fit-margin-top="0"
     showgrid="false"
     inkscape:document-rotation="0"
     inkscape:current-layer="layer1"
     inkscape:document-units="mm"
     inkscape:cy="-22.661479"
     inkscape:cx="152.75441"
     inkscape:zoom="0.5"
     inkscape:pageshadow="2"
     inkscape:pageopacity="0.0"
     borderopacity="1.0"
     bordercolor="#666666"
     pagecolor="#ffffff"
     id="base" />
  <metadata
     id="metadata164">
    <rdf:RDF>
      <cc:Work
         rdf:about="">
        <dc:format>image/svg+xml</dc:format>
        <dc:type
           rdf:resource="http://purl.org/dc/dcmitype/StillImage" />
        <dc:title></dc:title>
      </cc:Work>
    </rdf:RDF>
  </metadata>
  <g
     transform="translate(17.833902,17.899043)"
     id="layer1"
     inkscape:groupmode="layer"
     inkscape:label="Layer 1">
    <circle
       ry="27.790152"
       rx="27.750135"
       style="fill:none;stroke:#050800;stroke-width:0.620562;stroke-miterlimit:10"
       class="st0"
       cx="124.41892"
       cy="22.587006"
       id="circle87" />
    <rect
       style="fill:#050800;stroke-width:0.356701"
       x="92.572708"
       y="21.779678"
       class="st1"
       width="6.6382446"
       height="1.179917"
       id="rect89" />
    <rect
       style="fill:#050800;stroke-width:0.310282"
       x="152.16901"
       y="21.779678"
       class="st1"
       width="5.0229297"
       height="1.179917"
       id="rect91" />
    <rect
       style="fill:#050800;stroke-width:0.310282"
       x="-10.556454"
       y="-124.14001"
       transform="rotate(90)"
       class="st1"
       width="5.2920222"
       height="1.1451421"
       id="rect93" />
    <rect
       style="fill:#050800;stroke-width:0.310282"
       x="50.563339"
       y="-124.1733"
       transform="rotate(90)"
       class="st1"
       width="4.5644159"
       height="1.178218"
       id="rect95" />
    <path
       sodipodi:nodetypes="csccscc"
       style="opacity:0.83;fill:#050800;stroke-width:0.264392"
       class="st2"
       d="M 95.845345,8.0319802 C 101.02371,-2.895308 111.90886,-10.462388 124.4849,-10.462388 c 12.81382,0 23.91031,7.85812 28.95658,19.1558276 l 7.82039,0.0794 C 155.8193,-6.6788182 141.26156,-16.587475 124.35261,-16.587475 c -16.61833,0 -30.673735,9.5117768 -36.354049,24.5136552 z"
       id="path97" />
    <path
       sodipodi:nodetypes="csccscc"
       style="opacity:0.83;fill:#050800;stroke-width:0.264392"
       class="st2"
       d="m 150.8523,40.893229 c -5.73319,8.70479 -15.36327,14.089061 -26.30125,14.089061 -11.20218,0 -21.1231,-5.648851 -26.829875,-14.697601 l -8.32235,-0.10583 c 6.39367,13.25562 20.542975,20.835936 35.919555,20.835936 15.05954,0 27.30407,-7.236356 33.82987,-20.042186 z"
       id="path99" />
    <path
       style="fill:#c01710;stroke-width:0.264392"
       class="st3"
       d="m 94.497905,8.0319802 c 5.36331,-11.4564582 16.750455,-19.2087482 30.039835,-19.2087482 13.28939,0 24.9407,8.44021 30.304,19.8702076 h 0.71336 1.13607 C 151.22218,-3.689058 138.75183,-12.843639 124.53774,-12.843639 c -14.21409,0 -26.367415,8.4666609 -31.862815,20.8491592 h 0.81902 z"
       id="path101" />
    <path
       style="fill:#c01710;stroke-width:0.264392"
       class="st3"
       d="m 151.88268,40.919689 c -5.91813,9.49854 -15.9314,15.16063 -27.76766,15.16063 -11.83627,0 -22.27228,-6.32355 -28.190425,-15.82209 h -1.92868 c 6.103085,10.45104 17.305285,17.4625 30.119105,17.4625 12.81381,0 24.016,-6.35 30.11906,-16.77458 h -1.10965 z"
       id="path105" />
    <path
       style="fill:#050800;stroke-width:0.310282"
       class="st1"
       d="m 124.32567,22.680109 v 27.8833 c -15.28581,0 -27.843155,-12.57543 -27.843155,-27.8833 0,-15.3078585 12.557345,-27.8832872 27.843155,-27.8832872 z"
       id="path107" />
    <path
       style="fill:#ffffff;stroke-width:0.310282"
       id="Persona"
       class="st4"
       d="m 124.35233,39.546798 v 1.27307 1.80092 l -5.79808,2.26669 -4.21677,-4.78178 1.82933,-2.39087 z m -11.93721,-27.04495 c 0,0 -0.27905,15.05947 5.79806,17.54352 0.86818,0 6.17016,0.52785 6.17016,0.52785 v -2.57718 -2.57719 -4.09866 -5.65118 l 0.031,-2.20458 c 0,0 -7.03828,-3.446609 -7.56539,-3.322399 -0.5891,0.15525 -4.43384,2.359819 -4.43384,2.359819 z M 124.60037,0.01958135 c 0,0 -11.65814,-1.05570995 -12.21626,9.28408825 0,0 2.75951,-1.8009291 3.7207,-1.9251388 0.96118,-0.1242 8.40253,2.7634982 8.40253,2.7634982 l 0.0619,-9.34618776 V 0.01958135 Z M 117.90314,32.653598 c 0,0 -0.12401,2.45299 0,2.73244 0.12401,0.27945 6.44919,0.80731 6.44919,0.80731 v -3.57079 h -6.44919 z" />
    <path
       style="fill:#c01710;stroke-width:0.294182"
       id="carro"
       class="st3"
       d="m 126.2457,14.103258 c 0,0 0,0 0.87878,0 0.87878,0 15.78528,-0.265895 15.75272,-0.425438 -0.0325,-0.13296 -3.2547,-7.5249831 -3.48251,-7.7642792 -0.22784,-0.2393136 -3.18962,-0.4254551 -4.58915,-0.5318079 -1.36696,-0.1063442 -8.65749,-0.6647512 -8.85276,-0.6647512 -0.19527,0 -0.16272,-0.5052175 0,-0.5052175 2.08303,-0.1595337 13.31169,0.7179407 13.31169,0.7179407 0.52076,0 0.91133,0.3190847 1.82265,1.2497312 0.45565,0.452028 1.72498,3.4832972 2.99432,6.7538619 1.30188,3.40351 2.57121,7.046359 2.89667,8.349263 0.61839,2.55266 0,15.209497 0,15.209497 h -4.84948 V 33.274655 H 126.2457 v -2.446273 z m 18.38904,7.631331 c 1.00896,-2.074008 -0.52077,-4.387337 -1.52971,-4.706431 -1.00895,-0.319076 -3.93818,0.239314 -5.17497,0.904047 -1.23679,0.66476 -1.00896,4.839392 -1.00896,4.839392 5.07733,-0.132944 6.50939,0 7.71364,-1.037008 z m -18.42159,6.035941 v 2.552661 c 0,0 9.40607,0 13.86502,0 0.39055,-0.02659 0.91129,0 1.17168,-0.106388 1.30187,-0.505191 0.68348,-1.67516 0.16273,-2.074016 -0.45566,-0.345667 -1.30187,-0.372257 -1.30187,-0.372257 z m 17.86829,-14.810642 0.42311,1.14337 h 0.45566 c 0,0 0.0327,0.292503 0.22783,0.292503 0.19528,0 1.72497,0.07986 2.53863,0 0.81369,-0.07986 0.19531,-2.738784 0,-2.791965 -0.19526,-0.05309 -2.44101,-0.05309 -2.76646,0 -0.32547,0.05309 0,1.356092 0,1.356092 z" />
    <circle
       ry="1.6139584"
       rx="1.6116344"
       style="fill:#ffffff;stroke-width:0.264392"
       class="st4"
       cx="141.68463"
       cy="-10.303619"
       id="circle111" />
    <text
       style="font-style:normal;font-weight:normal;font-size:21.1667px;line-height:1.25;font-family:sans-serif;white-space:pre;shape-inside:url(#rect225);fill:#000000;fill-opacity:1;stroke:none;"
       id="text223"
       xml:space="preserve" />
    <text
       style="font-style:normal;font-weight:normal;font-size:10.5833px;line-height:1.25;font-family:sans-serif;white-space:pre;shape-inside:url(#rect231);fill:#000000;fill-opacity:1;stroke:none;"
       id="text229"
       xml:space="preserve" />
    <text
       transform="matrix(1.4868189,0,0,1.5929162,2.3209962,-247.69012)"
       style="font-style:normal;font-weight:normal;font-size:21.1667px;line-height:1.25;font-family:sans-serif;white-space:pre;shape-inside:url(#rect237);fill:#000000;fill-opacity:1;stroke:none;"
       id="text235"
       xml:space="preserve"><tspan
         x="-7.2246094"
         y="179.2661"><tspan
           style="font-style:normal;font-variant:normal;font-weight:bold;font-stretch:normal;font-family:Tahoma;-inkscape-font-specification:'Tahoma Bold'">Visual</tspan></tspan></text>
    <text
       id="text247"
       y="163.6593"
       x="-9.606082"
       style="font-style:normal;font-weight:normal;font-size:10.5833px;line-height:1.25;font-family:sans-serif;fill:#000000;fill-opacity:1;stroke:none;stroke-width:0.264583"
       xml:space="preserve"><tspan
         style="stroke-width:0.264583"
         y="163.6593"
         x="-9.606082"
         id="tspan245"
         sodipodi:role="line" /></text>
    <text
       transform="matrix(1.4868189,0,0,1.5929162,173.43791,-248.3005)"
       style="font-style:normal;font-weight:normal;font-size:21.1667px;line-height:1.25;font-family:sans-serif;white-space:pre;shape-inside:url(#rect282-1);fill:#000000;fill-opacity:1;stroke:none;"
       id="text280-2"
       xml:space="preserve"><tspan
         x="-7.2246094"
         y="179.2661"><tspan
           style="font-style:normal;font-variant:normal;font-weight:bold;font-stretch:normal;font-family:Tahoma;-inkscape-font-specification:'Tahoma Bold'">Tag</tspan></tspan></text>
  </g>
</svg>
