<?xml version="1.0" encoding="UTF-8" standalone="no"?>
<svg
   xmlns:dc="http://purl.org/dc/elements/1.1/"
   xmlns:cc="http://creativecommons.org/ns#"
   xmlns:rdf="http://www.w3.org/1999/02/22-rdf-syntax-ns#"
   xmlns:svg="http://www.w3.org/2000/svg"
   xmlns="http://www.w3.org/2000/svg"
   xmlns:sodipodi="http://sodipodi.sourceforge.net/DTD/sodipodi-0.dtd"
   xmlns:inkscape="http://www.inkscape.org/namespaces/inkscape"
   inkscape:version="1.0 (4035a4fb49, 2020-05-01)"
   width="268.61038mm"
   height="80.2481mm"
   viewBox="0 0 268.61038 80.2481"
   version="1.1"
   id="svg167"
   sodipodi:docname="VisualTagLogo.svg">
  <defs
     id="defs161">
    <rect
       id="rect237"
       height="56.356251"
       width="161.925"
       y="159.95512"
       x="-7.2248325" />
    <rect
       id="rect231"
       height="25.004402"
       width="107.39438"
       y="156.38197"
       x="-1.6421242" />
    <rect
       id="rect225"
       height="21.695833"
       width="100.0125"
       y="163.13013"
       x="-8.0185823" />
    <rect
       x="-7.2248325"
       y="159.95512"
       width="161.925"
       height="56.356251"
       id="rect237-6" />
    <rect
       x="-7.2248325"
       y="159.95512"
       width="161.925"
       height="56.356251"
       id="rect258" />
    <rect
       x="-7.2248325"
       y="159.95512"
       width="161.925"
       height="56.356251"
       id="rect282" />
    <rect
       id="rect282-1"
       height="25.461657"
       width="40.383354"
       y="159.95512"
       x="-7.2248325" />
    <rect
       id="rect293"
       height="56.356251"
       width="161.925"
       y="159.95512"
       x="-7.2248325" />
  </defs>
  <sodipodi:namedview
     inkscape:showpageshadow="false"
     inkscape:snap-others="false"
     inkscape:window-maximized="1"
     inkscape:window-y="951"
     inkscape:window-x="-9"
     inkscape:window-height="1001"
     inkscape:window-width="1920"
     fit-margin-bottom="0"
     fit-margin-right="10"
     fit-margin-left="10"
     fit-margin-top="0"
     showgrid="false"
     inkscape:document-rotation="0"
     inkscape:current-layer="layer1"
     inkscape:document-units="mm"
     inkscape:cy="240.9576"
     inkscape:cx="884.55279"
     inkscape:zoom="0.5"
     inkscape:pageshadow="2"
     inkscape:pageopacity="0.0"
     borderopacity="1.0"
     bordercolor="#666666"
     pagecolor="#ffffff"
     id="base" />
  <metadata
     id="metadata164">
    <rdf:RDF>
      <cc:Work
         rdf:about="">
        <dc:format>image/svg+xml</dc:format>
        <dc:type
           rdf:resource="http://purl.org/dc/dcmitype/StillImage" />
        <dc:title></dc:title>
      </cc:Work>
    </rdf:RDF>
  </metadata>
  <g
     transform="translate(27.833902,17.899043)"
     id="layer1"
     inkscape:groupmode="layer"
     inkscape:label="Layer 1">
    <circle
       ry="27.790152"
       rx="36.674252"
       style="fill:none;stroke:#050800;stroke-width:0.7134;stroke-miterlimit:10"
       class="st0"
       cx="126.96394"
       cy="22.399918"
       id="circle87" />
    <rect
       style="fill:#050800;stroke-width:0.356701"
       x="83.405373"
       y="21.59259"
       class="st1"
       width="6.6382446"
       height="1.179917"
       id="rect89" />
    <rect
       style="fill:#050800;stroke-width:0.356701"
       x="163.63811"
       y="21.59259"
       class="st1"
       width="6.6382446"
       height="1.179917"
       id="rect91" />
    <rect
       style="fill:#050800;stroke-width:0.356701"
       x="-10.015939"
       y="-126.63904"
       transform="rotate(90)"
       class="st1"
       width="4.5644159"
       height="1.557119"
       id="rect93" />
    <rect
       style="fill:#050800;stroke-width:0.356701"
       x="50.376251"
       y="-126.63935"
       transform="rotate(90)"
       class="st1"
       width="4.5644159"
       height="1.557119"
       id="rect95" />
    <path
       style="opacity:0.83;fill:#050800;stroke-width:0.303946"
       class="st2"
       d="m 89.20143,7.8448915 c 6.843663,-10.9272882 21.22935,-18.4943685 37.84969,-18.4943685 16.93459,0 31.59959,7.8581203 38.26867,19.1558279 l 10.33534,0.0794 c -7.19284,-15.4516578 -26.25734,-26.4847939 -48.60401,-26.4847939 -21.96258,0 -40.712866,10.6362561 -48.219904,25.6381345 z"
       id="path97" />
    <path
       style="opacity:0.83;fill:#050800;stroke-width:0.303946"
       class="st2"
       d="m 161.89797,40.70614 c -7.57692,8.70479 -20.39134,14.41979 -34.84685,14.41979 -14.80466,0 -27.828607,-5.97958 -35.370608,-15.02833 L 80.681789,39.99177 c 8.449803,13.25562 26.012911,22.35729 46.334421,22.35729 19.9025,0 37.22116,-8.75771 45.84558,-21.56354 z"
       id="path99" />
    <path
       style="fill:#c01710;stroke-width:0.303946"
       class="st3"
       d="m 87.420673,7.8448915 c 7.088082,-11.4564582 22.137197,-19.2087485 39.700287,-19.2087485 17.56309,0 32.96133,8.4402103 40.04941,19.8702079 h 0.94276 1.50142 c -7.22776,-12.3824976 -23.70842,-21.5370789 -42.49359,-21.5370789 -18.78518,0 -34.846867,8.4666612 -42.109517,20.8491595 h 1.082406 z"
       id="path101" />
    <path
       style="fill:#c01710;stroke-width:0.303946"
       class="st3"
       d="m 163.25971,40.7326 c -7.82134,9.49854 -21.05475,15.16063 -36.69742,15.16063 -15.64267,0 -29.434778,-6.32355 -37.256116,-15.82209 h -2.54892 c 8.065758,10.45104 22.870446,17.4625 39.805036,17.4625 16.93458,0 31.73926,-6.35 39.805,-16.77458 h -1.4665 z"
       id="path103" />
    <path
       style="fill:#c01710;stroke-width:0.303946"
       class="st3"
       d="m 163.25971,40.7326 c -7.82134,9.49854 -21.05475,15.16063 -36.69742,15.16063 -15.64267,0 -29.434778,-6.32355 -37.256116,-15.82209 h -2.54892 c 8.065758,10.45104 22.870446,17.4625 39.805036,17.4625 16.93458,0 31.73926,-6.35 39.805,-16.77458 h -1.4665 z"
       id="path105" />
    <path
       style="fill:#050800;stroke-width:0.356701"
       class="st1"
       d="m 126.84069,22.49302 v 27.8833 c -20.20155,0 -36.797182,-12.57543 -36.797182,-27.8833 0,-15.3078582 16.595632,-27.8832869 36.797182,-27.8832869 z"
       id="path107" />
    <path
       style="fill:#ffffff;stroke-width:0.356701"
       id="Persona"
       class="st4"
       d="m 127.04559,37.863 v 1.27307 1.80092 l -7.66268,2.26669 -5.57283,-4.78178 2.41762,-2.39087 z M 111.26951,10.81805 c 0,0 -0.36879,15.05947 7.66265,17.54352 1.14737,0 8.15441,0.52785 8.15441,0.52785 v -2.57718 -2.57719 -4.09866 -5.65118 l 0.041,-2.20458 c 0,0 -9.30172,-3.4466088 -9.99833,-3.3223991 -0.77856,0.15525 -5.85972,2.3598191 -5.85972,2.3598191 z m 16.10388,-12.4822667 c 0,0 -15.40726,-1.05571 -16.14486,9.2840882 0,0 3.64694,-1.8009291 4.91723,-1.9251388 1.27028,-0.1242 11.10469,2.7634982 11.10469,2.7634982 l 0.0818,-9.34618768 V -1.6642167 Z M 118.52241,30.9698 c 0,0 -0.16389,2.45299 0,2.73244 0.16389,0.27945 8.52318,0.80731 8.52318,0.80731 v -3.57079 h -8.52318 z" />
    <path
       style="fill:#c01710;stroke-width:0.362202"
       id="carro"
       class="st3"
       d="m 127.40014,11.93395 c 0,0 0,0 1.16138,0 1.16139,0 20.86165,-0.30499 20.81861,-0.48799 -0.043,-0.15251 -4.30137,-8.6313869 -4.60244,-8.9058669 -0.30111,-0.2745 -4.21536,-0.48801 -6.06496,-0.61 -1.80657,-0.12198 -11.44164,-0.76249 -11.69971,-0.76249 -0.25807,0 -0.21505,-0.57949997 0,-0.57949997 2.75291,-0.18298997 17.59258,0.82349997 17.59258,0.82349997 0.68823,0 1.2044,0.366 2.40878,1.43348 0.60219,0.51849 2.27972,3.9954487 3.95727,7.7468869 1.72054,3.90393 3.39807,8.08239 3.8282,9.57686 0.81726,2.92798 0,17.44576 0,17.44576 h -6.40902 v -3.69046 h -20.99069 v -2.80595 z m 24.30274,8.75337 c 1.33343,-2.37895 -0.68824,-5.03241 -2.02165,-5.39842 -1.33342,-0.36599 -5.20465,0.2745 -6.83918,1.03697 -1.63453,0.7625 -1.33342,5.55093 -1.33342,5.55093 6.71013,-0.15249 8.60273,0 10.19425,-1.18948 z m -24.34575,6.92341 v 2.92798 c 0,0 12.43095,0 18.32384,0 0.51615,-0.0305 1.20435,0 1.54848,-0.12203 1.72054,-0.57947 0.90328,-1.92146 0.21506,-2.37896 -0.60219,-0.39649 -1.72054,-0.42699 -1.72054,-0.42699 z m 23.61452,-16.98826 0.55917,1.31148 h 0.60219 c 0,0 0.0432,0.33551 0.3011,0.33551 0.25808,0 2.27971,0.0916 3.35503,0 1.07536,-0.0916 0.25812,-3.1414694 0,-3.2024694 -0.25806,-0.0609 -3.22601,-0.0609 -3.65613,0 -0.43013,0.0609 0,1.5554794 0,1.5554794 z" />
    <circle
       ry="1.6139584"
       rx="2.1299169"
       style="fill:#ffffff;stroke-width:0.303946"
       class="st4"
       cx="149.78207"
       cy="-10.490708"
       id="circle111" />
    <text
       style="font-style:normal;font-weight:normal;font-size:21.1667px;line-height:1.25;font-family:sans-serif;white-space:pre;shape-inside:url(#rect225);fill:#000000;fill-opacity:1;stroke:none;"
       id="text223"
       xml:space="preserve" />
    <text
       style="font-style:normal;font-weight:normal;font-size:10.5833px;line-height:1.25;font-family:sans-serif;white-space:pre;shape-inside:url(#rect231);fill:#000000;fill-opacity:1;stroke:none;"
       id="text229"
       xml:space="preserve" />
    <text
       transform="matrix(1.4868189,0,0,1.5929162,-6.8463488,-247.87721)"
       style="font-style:normal;font-weight:normal;font-size:21.1667px;line-height:1.25;font-family:sans-serif;white-space:pre;shape-inside:url(#rect237);fill:#000000;fill-opacity:1;stroke:none;"
       id="text235"
       xml:space="preserve"><tspan
         x="-7.2246094"
         y="179.2661"><tspan
           style="font-style:normal;font-variant:normal;font-weight:bold;font-stretch:normal;font-family:Tahoma;-inkscape-font-specification:'Tahoma Bold'">Visual</tspan></tspan></text>
    <text
       id="text247"
       y="163.6593"
       x="-9.606082"
       style="font-style:normal;font-weight:normal;font-size:10.5833px;line-height:1.25;font-family:sans-serif;fill:#000000;fill-opacity:1;stroke:none;stroke-width:0.264583"
       xml:space="preserve"><tspan
         style="stroke-width:0.264583"
         y="163.6593"
         x="-9.606082"
         id="tspan245"
         sodipodi:role="line" /></text>
    <text
       transform="matrix(1.4868189,0,0,1.5929162,185.59867,-247.17797)"
       style="font-style:normal;font-weight:normal;font-size:21.1667px;line-height:1.25;font-family:sans-serif;white-space:pre;shape-inside:url(#rect282-1);fill:#000000;fill-opacity:1;stroke:none;"
       id="text280-2"
       xml:space="preserve"><tspan
         x="-7.2246094"
         y="179.2661"><tspan
           style="font-style:normal;font-variant:normal;font-weight:bold;font-stretch:normal;font-family:Tahoma;-inkscape-font-specification:'Tahoma Bold'">Tag</tspan></tspan></text>
  </g>
</svg>
